<svg width="673" height="672" viewBox="0 0 673 672" fill="none" xmlns="http://www.w3.org/2000/svg">
<path d="M672.748 195.14V352.663H535.713C531.683 352.327 522.95 347.289 520.935 343.595L486.005 277.428C472.234 251.23 448.387 236.452 422.861 237.796C397.335 239.139 375.503 256.269 364.42 284.146L318.07 400.357L311.352 382.891C294.895 340.236 247.873 307.992 201.523 307.992L1.00879 309V195.14C1.00879 72.8837 73.8925 0 196.149 0H477.608C599.864 0 672.748 72.8837 672.748 195.14Z" fill="#2176AE"/>
<path d="M672.748 476.602V403.047H535.713C513.21 403.047 486.676 386.925 476.264 367.109L441.334 300.942C431.93 283.141 418.495 284.149 411.106 302.622L333.856 497.762C325.459 519.593 311.352 519.593 302.62 497.762L264.331 401.031C255.262 377.521 227.049 358.376 201.859 358.376L1.00879 359.384V476.602C1.00879 596.844 71.5414 669.391 190.103 671.407C193.798 671.742 197.828 671.742 201.523 671.742H470.219C475.257 671.742 480.295 671.742 484.997 671.407C602.887 668.72 672.748 596.508 672.748 476.602Z" fill="#2176AE"/>
<path d="M1.00761 359.386V470.559C0.335869 459.811 0 448.391 0 436.636V359.386H1.00761Z" fill="#2176AE"/>
</svg>
